HIERARCHY
ROOT Hips
{
	OFFSET	0.00	0.00	0.00
	CHANNELS 6 Xposition Yposition Zposition Zrotation Xrotation Yrotation
	JOINT Chest
	{
		OFFSET	 0.000000	 4.570000	 0.000000
		CHANNELS 3 Zrotation Xrotation Yrotation
		JOINT Neck
		{
			OFFSET	 0.000000	 17.620001	 0.000000
			CHANNELS 3 Zrotation Xrotation Yrotation
			JOINT Head
			{
				OFFSET	 0.000000	 5.190000	 0.000000
				CHANNELS 3 Zrotation Xrotation Yrotation
				End Site 
				{
					OFFSET	 0.000000	 4.140008	 0.000000
				}
			}
		}
		JOINT LeftCollar
		{
			OFFSET	 1.060000	 15.330000	 01.760000
			CHANNELS 3 Zrotation Xrotation Yrotation
			JOINT LeftShoulder
			{
				OFFSET	 5.00000	 0.000000	 0.000000
				CHANNELS 3 Zrotation Xrotation Yrotation
				JOINT LeftElbow
				{
					OFFSET	 0.000000	-11.90000	 0.000000
					CHANNELS 3 Zrotation Xrotation Yrotation
					JOINT LeftWrist
					{
						OFFSET	 0.000000	-9.520000	 0.000000
						CHANNELS 3 Zrotation Xrotation Yrotation
						End Site 
						{
							OFFSET	 0.000000	-7.0	 0.000000
						}
					}
				}
			}
		}
		JOINT RightCollar
		{
			OFFSET	-1.060000	 15.330000	 01.760000
			CHANNELS 3 Zrotation Xrotation Yrotation
			JOINT RightShoulder
			{
				OFFSET	-5.000000	 0.000000	 0.000000
				CHANNELS 3 Zrotation Xrotation Yrotation
				JOINT RightElbow
				{
					OFFSET	 0.000000	-11.900000	 0.000000
					CHANNELS 3 Zrotation Xrotation Yrotation
					JOINT RightWrist
					{
						OFFSET	 0.000000	-9.520000	 0.000000
						CHANNELS 3 Zrotation Xrotation Yrotation
						End Site 
						{
							OFFSET	 0.000000	-7.0	 0.000000
						}
					}
				}
			}
		}
	}
	JOINT LeftHip
	{
		OFFSET	 3.430000	 0.000000	 0.000000
		CHANNELS 3 Zrotation Xrotation Yrotation
		JOINT LeftKnee
		{
			OFFSET	 0.000000	-19.0	 0.000000
			CHANNELS 3 Zrotation Xrotation Yrotation
			JOINT LeftAnkle
			{
				OFFSET	 0.000000	-15.00000	 0.000000
				CHANNELS 3 Zrotation Xrotation Yrotation
				End Site 
				{
					OFFSET	 0.000000	-3.0	 0.000000
				}
			}
		}
	}
	JOINT RightHip
	{
		OFFSET	-3.430000	 0.000000	 0.000000
		CHANNELS 3 Zrotation Xrotation Yrotation
		JOINT RightKnee
		{
			OFFSET	 0.000000	-19.0	 0.000000
			CHANNELS 3 Zrotation Xrotation Yrotation
			JOINT RightAnkle
			{
				OFFSET	 0.000000	-15.00000	 0.000000
				CHANNELS 3 Zrotation Xrotation Yrotation
				End Site 
				{
					OFFSET	 0.000000	-3.0	 0.000000
				}
			}
		}
	}
}
MOTION
Frames: 11
Frame Time: 0.033333333
-0.225506	40.105174	2.465236	350.298263	351.530593	-1.075108	8.699651	14.341095	5.766683	359.938556	-328.847317	-0.072414	2.969680	-25.592250	6.395979	-9.288463	24.287770	8.504371	27.656320	4.249093	15.820883	131.489102	-128.227304	57.420927	-32.191398	3.722153	55.638269	-347.699731	-336.732907	-22.919573	-49.527681	-12.847830	54.463773	-71.591985	-66.993123	23.119232	226.930051	184.181701	101.087528	16.385466	18.354272	16.656801	-0.086708	29.401433	0.240143	344.010746	-355.535597	-1.890476	-351.105837	-345.966803	-0.362135	-7.158266	27.214622	2.044258	-331.612642	-358.783407	-3.445748	
-0.225506	40.105174	2.465236	350.298263	351.530593	-1.075108	8.699651	14.341095	5.766683	359.938556	-328.847317	-0.072414	2.969680	-25.592250	6.395979	-9.288463	24.287770	8.504371	27.656320	4.249093	15.820883	131.489102	-128.227304	57.420927	-32.191398	3.722153	55.638269	-347.699731	-336.732907	-22.919573	-49.527681	-12.847830	54.463773	-71.591985	-66.993123	23.119232	226.930051	184.181701	101.087528	16.385466	18.354272	16.656801	-0.086708	29.401433	0.240143	344.010746	-355.535597	-1.890476	-351.105837	-345.966803	-0.362135	-7.158266	27.214622	2.044258	-331.612642	-358.783407	-3.445748	
-0.251952	40.029565	2.542691	350.463745	352.698200	-0.880301	8.422797	12.995385	6.039881	-359.594533	-328.497393	-0.227688	2.522103	-25.750540	5.771656	-8.961199	24.310459	8.213380	27.472251	4.312122	15.724586	131.504921	-128.188276	57.036552	-32.583779	3.797607	55.673482	-347.529058	-336.812738	-23.486093	-49.227545	-12.914192	54.608928	-71.089830	-66.793613	23.323938	226.459383	184.260631	101.208914	16.165770	16.525441	17.370060	0.548573	30.651638	0.052593	343.989600	-355.957375	-2.576885	-351.252167	-347.540533	-0.098348	-7.128321	28.165169	2.172798	-331.126004	-359.225866	-3.502841	
-0.321807	40.048723	2.834317	350.407655	351.560181	-1.118412	8.394756	13.898781	5.859475	-359.635814	-327.851830	-0.221726	2.541930	-25.992733	5.828103	-9.739301	24.297624	8.236334	28.201128	4.600784	16.174851	131.452178	-128.147978	57.143523	-32.396741	4.007311	55.775470	-347.224213	-336.774817	-23.235437	-49.677887	-12.630327	54.415088	-71.810995	-66.859320	22.532597	226.799594	184.253077	101.127484	16.555989	17.912464	16.840830	0.354455	31.204565	0.115820	343.442939	-356.315550	-2.674474	-350.968195	-345.913691	-0.374320	-7.381105	28.033314	2.223487	-330.956561	-359.297174	-3.323178	
-0.353970	40.042617	3.094153	350.611250	350.442899	-1.065684	8.159545	14.779440	5.687405	-359.557868	-327.516796	-0.252636	2.624041	-25.950193	5.774848	-9.937653	24.296314	8.208297	28.498021	4.799913	16.369345	131.207753	-128.228588	57.220455	-32.053104	4.328718	55.981031	-346.942209	-336.766894	-23.191444	-50.152647	-12.327338	54.211808	-72.036992	-67.115103	22.012446	226.908140	183.768161	100.952891	16.535500	19.207767	16.311777	0.384741	31.520991	0.106861	343.078289	-356.565617	-2.705698	-351.128923	-344.150738	-0.662720	-7.282925	27.593410	2.132127	-331.008990	-359.434652	-3.260296	
-0.376988	39.991225	3.314159	350.788397	350.121853	-0.920074	7.961114	14.868041	5.674606	-359.359000	-327.363772	-0.323909	2.561274	-25.754925	5.582308	-9.587307	24.291781	8.368886	28.207458	4.734011	16.196168	131.033187	-128.408536	57.012404	-32.003694	4.576430	56.170781	-346.759979	-336.794214	-23.389497	-50.371015	-12.173436	54.120351	-71.700715	-67.360792	22.007921	226.659425	183.277166	100.880348	16.502580	19.419327	16.224270	0.555139	32.187498	0.050467	343.063809	-357.069822	-2.943110	-351.316945	-343.360512	-0.779281	-7.124131	27.390755	2.060582	-331.069068	-359.722066	-3.258178	
-0.419337	39.954280	3.586612	350.640592	350.052485	-0.958988	8.131669	14.687160	5.706207	-359.353618	-327.221978	-0.328160	2.165134	-25.609787	5.455946	-9.637761	24.262233	8.826405	28.014874	4.476007	16.053079	131.185541	-128.533583	56.772466	-32.204539	4.498811	56.162697	-346.710447	-336.799187	-23.426116	-50.479423	-12.084913	54.076508	-71.579342	-67.497307	22.355391	226.782259	183.688480	100.965172	16.892760	19.237644	16.303692	-359.279306	-326.624391	-0.009307	342.976300	-357.844939	-3.399868	-351.090920	-342.896879	-0.871248	-7.161451	27.402039	2.072054	-330.958474	-359.968772	-3.177807	
-0.439037	39.910065	3.769635	350.804134	350.565651	-0.764252	7.975875	13.956844	5.850677	-359.203955	-327.236458	-0.380362	1.759739	-25.618272	5.262241	-9.675735	24.267463	8.735962	27.950540	4.380538	16.004244	131.528963	-128.434013	56.927153	-32.314608	4.487037	56.175511	-346.502590	-336.831179	-23.655272	-50.652886	-12.069091	53.990660	-71.766811	-67.666621	22.496184	227.140899	184.072377	100.990676	16.737320	18.170855	16.742193	-358.642732	-325.341053	-0.256672	342.553129	-358.079460	-3.981067	-351.281236	-343.351360	-0.783254	-7.018912	27.803604	2.091205	-330.530330	359.883395	-3.224933	
-0.458268	39.877493	3.993051	350.904456	350.489727	-0.553238	7.899766	13.846525	5.872319	-359.081941	-327.415163	-0.419294	1.868694	-25.728396	5.351887	-9.817696	24.278817	8.522363	28.122255	4.376415	16.100719	131.646333	-128.476183	57.432457	-32.321595	4.844528	56.441393	-346.257550	-336.864429	-23.892407	-50.876380	-12.046879	53.880520	-72.095288	-67.827397	22.380149	227.529318	184.308811	100.960766	16.682873	17.886291	16.856324	-358.019792	-324.261747	-0.520659	341.712825	-357.911929	-4.488661	-351.403907	-343.037171	-0.824431	-6.809325	27.992502	2.060410	-329.822668	-359.933774	-3.284447	
-0.540055	39.776930	4.287802	350.306049	350.786785	-0.971844	8.514309	13.459884	5.947548	-359.554644	-327.946579	-0.248060	2.529071	-25.999026	5.994520	-10.043975	24.239398	9.084398	27.984205	4.386783	16.024091	131.829300	-128.237385	57.259189	-32.542944	3.682297	55.823824	-346.627993	-336.833638	-23.667558	-50.503148	-12.105274	54.061926	-70.490474	-67.921865	23.169401	226.596697	183.056127	100.863422	17.983679	17.291653	17.168751	-358.582080	-322.056852	-0.324060	340.916507	-357.985723	-5.188213	-350.555297	-342.969825	-0.901040	-7.329442	28.217268	2.236320	-329.125825	-359.585954	-2.565158	
-0.495127	39.846274	4.657605	350.786676	348.289149	-0.642421	8.175137	15.722451	5.499400	-359.329521	-327.922482	-0.324655	2.149550	-26.302808	5.669422	-10.746056	24.238635	8.930063	28.758801	4.271499	16.444940	131.205772	-128.567762	56.844893	-32.491438	4.913271	56.482166	-346.565865	-336.839567	-23.710671	-50.353850	-12.131138	54.134384	-70.875177	-67.630940	23.887030	227.182153	184.324889	101.048118	17.347227	20.388823	15.812396	-358.108092	-322.581711	-0.520639	340.084863	-358.160685	-4.781595	-350.964425	-339.700187	-1.405315	-7.042755	27.727661	2.086888	-329.567355	359.741218	-2.867832	
